<svg xmlns="http://www.w3.org/2000/svg" width="1280" height="640" viewBox="0 0 1280 640" role="img" aria-label="ZombieJox — Your JaxJox dumbbells aren't dead. They just need a new brain.">
  <title>ZombieJox social preview</title>

  <rect width="1280" height="640" fill="#F4ECD4"/>

  <!-- Logo, scaled from 32x32 up to 416x416, vertically centered, left-aligned -->
  <svg x="96" y="112" width="416" height="416" viewBox="0 0 32 32" shape-rendering="crispEdges" preserveAspectRatio="xMidYMid meet">
    <rect x="4" y="4" width="10" height="1" fill="#2D2F3A"/>
    <rect x="3" y="5" width="1" height="1" fill="#2D2F3A"/>
    <rect x="4" y="5" width="10" height="1" fill="#8DB04A"/>
    <rect x="14" y="5" width="1" height="1" fill="#2D2F3A"/>
    <rect x="3" y="6" width="1" height="1" fill="#2D2F3A"/>
    <rect x="4" y="6" width="2" height="1" fill="#8DB04A"/>
    <rect x="6" y="6" width="1" height="1" fill="#C26339"/>
    <rect x="7" y="6" width="7" height="1" fill="#8DB04A"/>
    <rect x="14" y="6" width="1" height="1" fill="#2D2F3A"/>
    <rect x="19" y="6" width="2" height="1" fill="#2D2F3A"/>
    <rect x="27" y="6" width="2" height="1" fill="#2D2F3A"/>
    <rect x="3" y="7" width="1" height="1" fill="#2D2F3A"/>
    <rect x="4" y="7" width="1" height="1" fill="#8DB04A"/>
    <rect x="5" y="7" width="1" height="1" fill="#C26339"/>
    <rect x="6" y="7" width="8" height="1" fill="#8DB04A"/>
    <rect x="14" y="7" width="1" height="1" fill="#2D2F3A"/>
    <rect x="19" y="7" width="2" height="1" fill="#2D2F3A"/>
    <rect x="27" y="7" width="2" height="1" fill="#2D2F3A"/>
    <rect x="3" y="8" width="1" height="1" fill="#2D2F3A"/>
    <rect x="4" y="8" width="1" height="1" fill="#C26339"/>
    <rect x="5" y="8" width="9" height="1" fill="#8DB04A"/>
    <rect x="14" y="8" width="1" height="1" fill="#2D2F3A"/>
    <rect x="18" y="8" width="12" height="1" fill="#2D2F3A"/>
    <rect x="3" y="9" width="1" height="1" fill="#2D2F3A"/>
    <rect x="4" y="9" width="2" height="1" fill="#8DB04A"/>
    <rect x="6" y="9" width="2" height="1" fill="#2D2F3A"/>
    <rect x="8" y="9" width="4" height="1" fill="#8DB04A"/>
    <rect x="12" y="9" width="2" height="1" fill="#2D2F3A"/>
    <rect x="14" y="9" width="1" height="1" fill="#8DB04A"/>
    <rect x="15" y="9" width="1" height="1" fill="#2D2F3A"/>
    <rect x="18" y="9" width="6" height="1" fill="#2D2F3A"/>
    <rect x="24" y="9" width="2" height="1" fill="#F0E6C2"/>
    <rect x="26" y="9" width="4" height="1" fill="#2D2F3A"/>
    <rect x="3" y="10" width="1" height="1" fill="#2D2F3A"/>
    <rect x="4" y="10" width="2" height="1" fill="#8DB04A"/>
    <rect x="6" y="10" width="2" height="1" fill="#2D2F3A"/>
    <rect x="8" y="10" width="4" height="1" fill="#8DB04A"/>
    <rect x="12" y="10" width="2" height="1" fill="#2D2F3A"/>
    <rect x="14" y="10" width="1" height="1" fill="#8DB04A"/>
    <rect x="15" y="10" width="1" height="1" fill="#2D2F3A"/>
    <rect x="19" y="10" width="2" height="1" fill="#2D2F3A"/>
    <rect x="27" y="10" width="2" height="1" fill="#2D2F3A"/>
    <rect x="3" y="11" width="1" height="1" fill="#2D2F3A"/>
    <rect x="4" y="11" width="11" height="1" fill="#8DB04A"/>
    <rect x="15" y="11" width="1" height="1" fill="#2D2F3A"/>
    <rect x="19" y="11" width="2" height="1" fill="#2D2F3A"/>
    <rect x="27" y="11" width="2" height="1" fill="#2D2F3A"/>
    <rect x="3" y="12" width="1" height="1" fill="#2D2F3A"/>
    <rect x="4" y="12" width="4" height="1" fill="#8DB04A"/>
    <rect x="8" y="12" width="4" height="1" fill="#2D2F3A"/>
    <rect x="12" y="12" width="3" height="1" fill="#8DB04A"/>
    <rect x="15" y="12" width="1" height="1" fill="#2D2F3A"/>
    <rect x="24" y="12" width="1" height="1" fill="#2D2F3A"/>
    <rect x="25" y="12" width="2" height="1" fill="#8DB04A"/>
    <rect x="27" y="12" width="1" height="1" fill="#2D2F3A"/>
    <rect x="3" y="13" width="1" height="1" fill="#2D2F3A"/>
    <rect x="4" y="13" width="11" height="1" fill="#8DB04A"/>
    <rect x="15" y="13" width="1" height="1" fill="#2D2F3A"/>
    <rect x="24" y="13" width="1" height="1" fill="#2D2F3A"/>
    <rect x="25" y="13" width="2" height="1" fill="#8DB04A"/>
    <rect x="27" y="13" width="1" height="1" fill="#2D2F3A"/>
    <rect x="3" y="14" width="3" height="1" fill="#2D2F3A"/>
    <rect x="6" y="14" width="7" height="1" fill="#8DB04A"/>
    <rect x="13" y="14" width="3" height="1" fill="#2D2F3A"/>
    <rect x="24" y="14" width="1" height="1" fill="#2D2F3A"/>
    <rect x="25" y="14" width="2" height="1" fill="#8DB04A"/>
    <rect x="27" y="14" width="1" height="1" fill="#2D2F3A"/>
    <rect x="6" y="15" width="8" height="1" fill="#2D2F3A"/>
    <rect x="24" y="15" width="1" height="1" fill="#2D2F3A"/>
    <rect x="25" y="15" width="2" height="1" fill="#8DB04A"/>
    <rect x="27" y="15" width="1" height="1" fill="#2D2F3A"/>
    <rect x="3" y="16" width="2" height="1" fill="#2D2F3A"/>
    <rect x="5" y="16" width="10" height="1" fill="#8DB04A"/>
    <rect x="15" y="16" width="2" height="1" fill="#2D2F3A"/>
    <rect x="24" y="16" width="1" height="1" fill="#2D2F3A"/>
    <rect x="25" y="16" width="2" height="1" fill="#8DB04A"/>
    <rect x="27" y="16" width="1" height="1" fill="#2D2F3A"/>
    <rect x="2" y="17" width="1" height="1" fill="#2D2F3A"/>
    <rect x="3" y="17" width="14" height="1" fill="#8DB04A"/>
    <rect x="17" y="17" width="1" height="1" fill="#2D2F3A"/>
    <rect x="24" y="17" width="1" height="1" fill="#2D2F3A"/>
    <rect x="25" y="17" width="2" height="1" fill="#8DB04A"/>
    <rect x="27" y="17" width="1" height="1" fill="#2D2F3A"/>
    <rect x="2" y="18" width="1" height="1" fill="#2D2F3A"/>
    <rect x="3" y="18" width="14" height="1" fill="#8DB04A"/>
    <rect x="17" y="18" width="8" height="1" fill="#2D2F3A"/>
    <rect x="25" y="18" width="2" height="1" fill="#8DB04A"/>
    <rect x="27" y="18" width="1" height="1" fill="#2D2F3A"/>
    <rect x="2" y="19" width="1" height="1" fill="#2D2F3A"/>
    <rect x="3" y="19" width="24" height="1" fill="#8DB04A"/>
    <rect x="27" y="19" width="1" height="1" fill="#2D2F3A"/>
    <rect x="2" y="20" width="1" height="1" fill="#2D2F3A"/>
    <rect x="3" y="20" width="14" height="1" fill="#8DB04A"/>
    <rect x="17" y="20" width="11" height="1" fill="#2D2F3A"/>
    <rect x="2" y="21" width="1" height="1" fill="#2D2F3A"/>
    <rect x="3" y="21" width="14" height="1" fill="#8DB04A"/>
    <rect x="17" y="21" width="1" height="1" fill="#2D2F3A"/>
    <rect x="2" y="22" width="1" height="1" fill="#2D2F3A"/>
    <rect x="3" y="22" width="14" height="1" fill="#8DB04A"/>
    <rect x="17" y="22" width="1" height="1" fill="#2D2F3A"/>
    <rect x="2" y="23" width="1" height="1" fill="#2D2F3A"/>
    <rect x="3" y="23" width="14" height="1" fill="#8DB04A"/>
    <rect x="17" y="23" width="1" height="1" fill="#2D2F3A"/>
    <rect x="2" y="24" width="1" height="1" fill="#2D2F3A"/>
    <rect x="3" y="24" width="14" height="1" fill="#8DB04A"/>
    <rect x="17" y="24" width="1" height="1" fill="#2D2F3A"/>
    <rect x="2" y="25" width="1" height="1" fill="#2D2F3A"/>
    <rect x="3" y="25" width="14" height="1" fill="#8DB04A"/>
    <rect x="17" y="25" width="1" height="1" fill="#2D2F3A"/>
    <rect x="3" y="26" width="1" height="1" fill="#2D2F3A"/>
    <rect x="4" y="26" width="12" height="1" fill="#8DB04A"/>
    <rect x="16" y="26" width="1" height="1" fill="#2D2F3A"/>
    <rect x="3" y="27" width="14" height="1" fill="#2D2F3A"/>
  </svg>

  <!-- Wordmark -->
  <text x="568" y="288" font-family="Menlo, Monaco, Consolas, monospace" font-size="104" font-weight="700" fill="#2D2F3A" letter-spacing="-2">ZombieJox</text>

  <!-- Tagline -->
  <text x="568" y="360" font-family="Helvetica, Arial, sans-serif" font-size="32" fill="#2D2F3A">Your JaxJox dumbbells aren't dead.</text>
  <text x="568" y="402" font-family="Helvetica, Arial, sans-serif" font-size="32" fill="#2D2F3A">They just need a new brain.</text>

  <!-- Subtitle -->
  <text x="568" y="468" font-family="Helvetica, Arial, sans-serif" font-size="22" fill="#2D2F3A" opacity="0.65">Open-source Flutter replacement for the JaxJox Connect app.</text>
</svg>
